# AST/ASF file generated using VICON BodyLanguage
# -----------------------------------------------
:version 1.10
:name VICON
:units
  mass 1.0
  length 0.45
  angle deg
:documentation
   .ast/.asf automatically generated from VICON data using
   VICON BodyBuilder and BodyLanguage model FoxedUp or BRILLIANT.MOD
:root
   order TX TY TZ RX RY RZ
   axis XYZ
   position 0 0 0  
   orientation 0 0 0 
:bonedata
  begin
     id 1 
     name lhipjoint
     direction 0.584852 -0.759097 0.285867 
     length 2.43633 
     axis 0 0 0  XYZ
  end
  begin
     id 2 
     name lfemur
     direction 0.34202 -0.939693 0  
     length 7.14704  
     axis 0 0 20  XYZ
    dof rx ry rz
    limits (-160.0 20.0)
           (-70.0 70.0)
           (-60.0 70.0)
  end
  begin
     id 3 
     name ltibia
     direction 0.342022 -0.939692 0   
     length 7.68483   
     axis 0 0 20   XYZ
    dof rx
    limits (-10.0 170.0)
  end
  begin
     id 4 
     name lfoot
     direction 0.0999605 -0.274639 0.956337   
     length 2.40452   
     axis -90 7.62852e-016 20   XYZ
    dof rx rz
    limits (-45.0 90.0)
           (-70.0 20.0)
  end
  begin
     id 5 
     name ltoes
     direction 1.53468e-011 -4.21881e-011 1   
     length 1.19837   
     axis -90 7.62852e-016 20   XYZ
    dof rx
    limits (-90.0 20.0)
  end
  begin
     id 6 
     name rhipjoint
     direction -0.569886 -0.769002 0.289597   
     length 2.40495  
     axis 0 0 0  XYZ 
  end
  begin
     id 7 
     name rfemur
     direction -0.34202 -0.939693 0   
     length 7.45086   
     axis 0 0 -20   XYZ
    dof rx ry rz
    limits (-160.0 20.0)
           (-70.0 70.0)
           (-70.0 60.0)
  end
  begin
     id 8 
     name rtibia
     direction -0.34202 -0.939693 0   
     length 7.76831   
     axis 0 0 -20   XYZ
    dof rx
    limits (-10.0 170.0)
 end
 begin
     id 9 
     name rfoot
     direction -0.0798572 -0.219406 0.97236   
     length 2.35911  
     axis -90 -7.62852e-016 -20   XYZ
    dof rx rz
    limits (-45.0 90.0)
           (-20.0 70.0)
  end
  begin
     id 10 
     name rtoes
     direction -1.53469e-011 -4.21728e-011 1   
     length 1.18261   
     axis -90 -7.62852e-016 -20   XYZ
    dof rx
    limits (-90.0 20.0)
  end
  begin
     id 11 
     name lowerback
     direction 0.0242088 0.999437 0.0232389   
     length 2.1561   
     axis 0 0 0   XYZ
    dof rx ry rz
    limits (-20.0 45.0)
           (-30.0 30.0)
           (-30.0 30.0)
  end
  begin
     id 12 
     name upperback
     direction -0.0356893 0.999013 -0.0264323   
     length 2.14431   
     axis 0 0 0   XYZ
    dof rx ry rz
    limits (-20.0 45.0)
           (-30.0 30.0)
           (-30.0 30.0)
  end
  begin
     id 13 
     name thorax
     direction -0.0472163 0.998194 -0.0371284   
     length 2.16169   
     axis 0 0 0   XYZ
    dof rx ry rz
    limits (-20.0 45.0)
           (-30.0 30.0)
           (-30.0 30.0)
  end
  begin
     id 14 
     name lowerneck
     direction 0.00863244 0.999921 0.00911972   
     length 1.58651   
     axis 0 0 0   XYZ
    dof rx ry rz
    limits (-20.0 45.0)
           (-30.0 30.0)
           (-30.0 30.0)
  end
  begin
     id 15 
     name upperneck
     direction 0.149523 0.979068 -0.138086   
     length 1.57486   
     axis 0 0 0   XYZ
    dof rx ry rz
    limits (-20.0 45.0)
           (-30.0 30.0)
           (-30.0 30.0)
  end
  begin
     id 16
     name head
     direction 0.0445219 0.997708 -0.0509576  
     length 1.6019  
     axis 0 0 0   XYZ
    dof rx ry rz
    limits (-20.0 45.0)
           (-30.0 30.0)
           (-30.0 30.0)
  end
  begin
     id 17 
     name lclavicle
     direction 0.911271 0.381667 -0.154644  
     length 3.80848  
     axis 0 0 0   XYZ
    dof ry rz
    limits (-20.0 10.0)
           (0.0 20.0)
  end
  begin
     id 18 
     name lhumerus
     direction 1 -4.49003e-011 2.1308e-027   
     length 5.19069   
     axis 180 -30 -90   XYZ
    dof rx ry rz
    limits (-60.0 90.0)
           (-90.0 90.0)
           (-90.0 90.0)
  end
  begin
     id 19
     name lradius
     direction 1 -4.48914e-011 4.01554e-027   
     length 3.30016   
     axis 180 -30 -90   XYZ
    dof rx
    limits (-10.0 170.0)
  end
  begin
     id 20
     name lwrist
     direction 1 -4.49003e-011 1.1934e-026   
     length 1.65008   
     axis -8.46377e-015 90 90   XYZ
    dof ry
    limits (-180.0 0.0)
 end
  begin
     id 21 
     name lhand
     direction 1 -4.49034e-011 2.38659e-026   
     length 0.707698   
     axis -1.52313e-014 90 90   XYZ
    dof rx rz
    limits (-90.0 90.0)
           (-45.0 45.0)
  end
  begin
     id 22 
     name lfingers
     direction 1 -4.48691e-011 4.77775e-026   
     length 0.570564   
     axis -3.04623e-014 90 90   XYZ
    dof rx
    limits (0.0 90.0)
  end
  begin
     id 23
     name lthumb
     direction 0.707107 -6.34832e-011 0.707107   
     length 0.819219   
     axis -90 45 -1.62303e-014   XYZ
    dof rx rz
    limits (-45.0 45.0)
           (-45.0 45.0)
  end
  begin
     id 24 
     name rclavicle
     direction -0.815579 0.573708 -0.0754329   
     length 3.54371  
     axis 0 0 0   XYZ 
    dof ry rz
    limits (-10.0 20.0)
           (-20.0 0.0)
  end
  begin
     id 25 
     name rhumerus
     direction -1 -4.48956e-011 3.05351e-028  
     length 5.23924   
     axis 180 30 90   XYZ
    dof rx ry rz
    limits (-90.0 60.0)
           (-90.0 90.0)
           (-90.0 90.0)
  end
  begin
     id 26 
     name rradius
     direction -1 -4.49013e-011 3.53849e-027   
     length 3.32953   
     axis 180 30 90   XYZ
    dof rx
    limits (-10.0 170.0)
  end
  begin
     id 27 
     name rwrist
     direction -1 -4.48901e-011 1.19374e-026   
     length 1.66477   
     axis -8.46377e-015 -90 -90   XYZ
    dof ry
    limits (-180.0 0.0)
  end
  begin
     id 28
     name rhand
     direction -1 -4.48877e-011 2.38764e-026   
     length 0.607414   
     axis -1.52313e-014 -90 -90   XYZ
    dof rx rz
    limits (-90.0 90.0)
           (-45.0 45.0)
  end
  begin
     id 29
     name rfingers
     direction -1 -4.48882e-011 4.77521e-026   
     length 0.489712   
     axis -3.04623e-014 -90 -90   XYZ
    dof rx
    limits (0.0 90.0)
  end
  begin
     id 30
     name rthumb
     direction -0.707107 -6.34974e-011 0.707107   
     length 0.703132   
     axis -90 -45 1.62303e-014   XYZ
    dof rx rz
    limits (-45.0 45.0)
           (-45.0 45.0)
  end
:hierarchy
  begin
    root lhipjoint rhipjoint lowerback
    lhipjoint lfemur
    lfemur ltibia
    ltibia lfoot
    lfoot ltoes
    rhipjoint rfemur
    rfemur rtibia
    rtibia rfoot
    rfoot rtoes
    lowerback upperback
    upperback thorax
    thorax lowerneck lclavicle rclavicle
    lowerneck upperneck
    upperneck head
    lclavicle lhumerus
    lhumerus lradius
    lradius lwrist
    lwrist lhand lthumb
    lhand lfingers
    rclavicle rhumerus
    rhumerus rradius
    rradius rwrist
    rwrist rhand rthumb
    rhand rfingers
  end

#!OML:ASF E:\VariousWalksJay\Project 1\Capture day 1\Session 1\Actor2.ASF
:FULLY-SPECIFIED
:DEGREES
296
root 14.2586 16.5732 -8.94348 6.2577 -16.2235 -4.25531
lowerback 12.2273 -1.87888 6.87217
upperback 7.88833 -1.88594 1.44649
thorax 1.29561 -0.764089 -2.14081
lowerneck -11.4898 -5.55353 -4.59678
upperneck 1.06479 -7.41035 11.8658
head 2.82546 -3.31743 3.89459
rclavicle -1.71949e-014 -1.39149e-014
rhumerus -78.7816 22.5668 -128.787
rradius 70.3922
rwrist 21.7383
rhand -16.8183 3.65003
rfingers 7.12502
rthumb 9.41069 -26.1199
lclavicle -1.71949e-014 -1.39149e-014
lhumerus -80.1952 -30.5814 144.74
lradius 65.9066
lwrist -1.39967
lhand -57.1829 1.7705
lfingers 7.12502
lthumb -29.4661 29.4531
rfemur -26.3275 -8.32419 34.2921
rtibia 51.6903
rfoot -32.1328 -9.13083
rtoes -6.57678
lfemur -45.3082 2.86828 -19.5215
ltibia 41.4237
lfoot -20.7076 7.73501
ltoes -17.6538
297
root 14.2791 16.5056 -9.00481 6.32738 -16.0371 -3.82285
lowerback 13.2042 -1.91845 6.45937
upperback 8.32024 -1.92236 1.45795
thorax 1.23676 -0.793601 -1.87445
lowerneck -11.2802 -5.51597 -4.56107
upperneck -0.275914 -7.25686 11.981
head 2.38338 -3.28949 3.95413
rclavicle -2.0773e-014 -2.14687e-014
rhumerus -78.8943 22.7513 -128.597
rradius 70.4173
rwrist 22.2708
rhand -16.9696 3.77659
rfingers 7.12502
rthumb 9.26472 -25.9998
lclavicle -2.0773e-014 -2.14687e-014
lhumerus -79.7961 -30.3618 144.583
lradius 65.7875
lwrist -1.55226
lhand -57.6678 -0.621425
lfingers 7.12502
lthumb -29.929 26.9787
rfemur -27.6944 -8.33715 33.9789
rtibia 53.3453
rfoot -32.2953 -9.33167
rtoes -6.43222
lfemur -46.1943 3.36214 -21.2407
ltibia 38.0275
lfoot -20.1268 8.59469
ltoes -17.459
298
root 14.3014 16.4337 -9.06529 6.41438 -15.878 -3.41495
lowerback 14.1916 -1.95619 6.10844
upperback 8.75769 -1.95619 1.45853
thorax 1.18308 -0.820271 -1.65311
lowerneck -11.0319 -5.47829 -4.51219
upperneck -1.66725 -7.10098 12.0824
head 1.92049 -3.26492 4.01005
rclavicle -1.66979e-014 4.85035e-014
rhumerus -78.9831 22.8837 -128.438
rradius 70.4066
rwrist 22.5898
rhand -17.0885 4.00772
rfingers 7.12502
rthumb 9.14993 -25.7738
lclavicle -1.66979e-014 4.85035e-014
lhumerus -79.4236 -30.1457 144.444
lradius 65.6118
lwrist -1.68054
lhand -58.1569 -3.19011
lfingers 7.12502
lthumb -30.3955 24.3248
rfemur -29.0717 -8.37499 33.681
rtibia 55.0067
rfoot -32.4547 -9.48064
rtoes -6.31153
lfemur -46.8791 3.90286 -23.0487
ltibia 34.3056
lfoot -19.4776 9.35791
ltoes -17.2754
299
root 14.3258 16.3578 -9.12426 6.51726 -15.7559 -3.0251
lowerback 15.1781 -1.99003 5.81903
upperback 9.20328 -1.98439 1.44485
thorax 1.1438 -0.842018 -1.48114
lowerneck -10.7756 -5.43765 -4.45128
upperneck -3.08271 -6.94062 12.162
head 1.44893 -3.24096 4.05948
rclavicle 6.2319e-014 -5.1684e-014
rhumerus -79.0412 22.9618 -128.304
rradius 70.3619
rwrist 22.7062
rhand -17.1721 4.34615
rfingers 7.12502
rthumb 9.06928 -25.4389
lclavicle 6.2319e-014 -5.1684e-014
lhumerus -79.0887 -29.9485 144.326
lradius 65.3916
lwrist -1.79953
lhand -58.6464 -5.90277
lfingers 7.12502
lthumb -30.8623 21.5249
rfemur -30.4582 -8.44027 33.39
rtibia 56.6766
rfoot -32.6103 -9.57851
rtoes -6.27799
lfemur -47.3241 4.4814 -24.9424
ltibia 30.1971
lfoot -18.7266 9.96536
ltoes -17.1368
300
root 14.3524 16.2778 -9.18134 6.63737 -15.6688 -2.64791
lowerback 16.1594 -2.0223 5.58406
upperback 9.65321 -2.00946 1.41758
thorax 1.11721 -0.86025 -1.35389
lowerneck -10.445 -5.39438 -4.44824
upperneck -4.57154 -6.78291 11.9324
head 1.0089 -3.23041 4.45549
rclavicle -2.0276e-014 4.65156e-014
rhumerus -79.082 22.9917 -128.2
rradius 70.289
rwrist 22.6395
rhand -17.2163 4.78409
rfingers 7.12502
rthumb 9.02666 -25.0028
lclavicle -2.0276e-014 4.65156e-014
lhumerus -78.7951 -29.7807 144.238
lradius 65.1361
lwrist -1.92033
lhand -59.133 -8.72344
lfingers 7.12502
lthumb -31.3261 18.6154
rfemur -31.8579 -8.53687 33.1017
rtibia 58.359
rfoot -32.7682 -9.61468
rtoes -6.30433
lfemur -47.4761 5.08508 -26.9146
ltibia 25.6009
lfoot -17.8147 10.3457
ltoes -17.0458
301
root 14.3805 16.1935 -9.23635 6.77321 -15.612 -2.27985
lowerback 17.1336 -2.0547 5.38539
upperback 10.0995 -2.0344 1.38345
thorax 1.0963 -0.877411 -1.25385
lowerneck -10.1763 -5.33953 -4.37526
upperneck -5.95648 -6.61314 11.9676
head 0.48686 -3.19824 4.48525
rclavicle -2.38542e-014 -8.34896e-015
rhumerus -79.1264 22.9762 -128.124
rradius 70.2076
rwrist 22.3587
rhand -17.2071 5.3241
rfingers 7.12502
rthumb 9.03547 -24.4624
lclavicle -2.38542e-014 -8.34896e-015
lhumerus -78.5479 -29.629 144.188
lradius 64.8552
lwrist -2.05609
lhand -59.6139 -11.6211
lfingers 7.12502
lthumb -31.7842 15.6279
rfemur -33.2716 -8.66424 32.8165
rtibia 60.0584
rfoot -32.9291 -9.59518
rtoes -6.431
lfemur -47.2135 5.71238 -28.9641
ltibia 20.2909
lfoot -16.5951 10.4481
ltoes -17.1618
302
root 14.4093 16.1046 -9.28875 6.92197 -15.5896 -1.91407
lowerback 18.0893 -2.08667 5.20673
upperback 10.5423 -2.06079 1.33887
thorax 1.08725 -0.894569 -1.17588
lowerneck -9.88237 -5.27361 -4.30501
upperneck -7.34343 -6.43032 11.9875
head -0.0399883 -3.16108 4.5179
rclavicle -7.99114e-014 3.598e-014
rhumerus -79.1842 22.9294 -128.094
rradius 70.1292
rwrist 21.8383
rhand -17.1624 5.96804
rfingers 7.12502
rthumb 9.07868 -23.8166
lclavicle -7.99114e-014 3.598e-014
lhumerus -78.3545 -29.4999 144.176
lradius 64.567
lwrist -2.20567
lhand -60.0687 -14.6581
lfingers 7.12502
lthumb -32.2172 12.504
rfemur -34.6991 -8.81872 32.5298
rtibia 61.7777
rfoot -33.1023 -9.51387
rtoes -6.6059
lfemur -46.1897 6.37449 -31.0971
ltibia 13.6109
lfoot -14.7125 10.2161
ltoes -17.4503
303
root 14.4381 16.0102 -9.33801 7.07928 -15.5978 -1.54514
lowerback 19.0208 -2.11795 5.02878
upperback 10.9773 -2.09083 1.28519
thorax 1.08849 -0.913674 -1.10755
lowerneck -9.53586 -5.19423 -4.24488
upperneck -8.73176 -6.23112 12.0022
head -0.577734 -3.11731 4.55995
rclavicle -3.02153e-014 -1.88845e-014
rhumerus -79.2689 22.8673 -128.12
rradius 70.0653
rwrist 21.0485
rhand -17.0548 6.70537
rfingers 7.12502
rthumb 9.18247 -23.0747
lclavicle -3.02153e-014 -1.88845e-014
lhumerus -78.2208 -29.3916 144.212
lradius 64.284
lwrist -2.35684
lhand -60.5255 -17.835
lfingers 7.12502
lthumb -32.6519 9.23798
rfemur -36.1384 -8.99735 32.2418
rtibia 63.5189
rfoot -33.305 -9.38296
rtoes -6.81149
lfemur -41.3908 5.73282 -32.1295
ltibia 5.08889e-014
lfoot -9.37559 11.407
ltoes -17.8812
304
root 14.4653 15.9101 -9.38414 7.23952 -15.623 -1.17188
lowerback 19.9247 -2.14911 4.83187
upperback 11.399 -2.12801 1.22628
thorax 1.09574 -0.93758 -1.03308
lowerneck -9.12709 -5.10094 -4.17906
upperneck -10.1058 -6.01778 12.0043
head -1.1259 -3.06778 4.60585
rclavicle 3.12092e-014 7.55382e-015
rhumerus -79.3935 22.7996 -128.215
rradius 70.0211
rwrist 19.9996
rhand -16.8823 7.51451
rfingers 7.12502
rthumb 9.34887 -22.2582
lclavicle 3.12092e-014 7.55382e-015
lhumerus -78.1596 -29.3034 144.309
lradius 64.0176
lwrist -2.48988
lhand -60.9945 -21.1012
lfingers 7.12502
lthumb -33.098 5.87822
rfemur -37.5831 -9.20541 31.9619
rtibia 65.2785
rfoot -33.5508 -9.22334
rtoes -7.016
lfemur -43.5464 5.14264 -33.0778
ltibia 5.40694e-014
lfoot -10.6382 12.3925
ltoes -18.4279
305
root 14.4904 15.8045 -9.4256 7.41347 -15.6797 -0.781466
lowerback 20.7678 -2.17435 4.59482
upperback 11.8032 -2.17067 1.15621
thorax 1.12071 -0.966109 -0.947984
lowerneck -8.60187 -4.9914 -4.12863
upperneck -11.6817 -5.72958 12.3431
head -1.52968 -3.01133 4.33094
rclavicle -1.8487e-014 -2.44505e-014
rhumerus -79.5594 22.7469 -128.39
rradius 69.9789
rwrist 18.748
rhand -16.6433 8.37281
rfingers 7.12502
rthumb 9.57956 -21.3894
lclavicle -1.8487e-014 -2.44505e-014
lhumerus -78.1705 -29.2424 144.47
lradius 63.7798
lwrist -2.57893
lhand -61.4815 -24.3147
lfingers 7.12502
lthumb -33.5611 2.56547
rfemur -39.0376 -9.42932 31.6817
rtibia 67.0389
rfoot -33.8408 -9.04697
rtoes -7.20202
lfemur -45.6143 4.62111 -33.9608
ltibia 1.11319e-013
lfoot -11.7853 13.1903
ltoes -18.9426
306
root 14.5124 15.6935 -9.46253 7.59352 -15.7546 -0.372801
lowerback 21.5428 -2.19688 4.30849
upperback 12.1867 -2.22505 1.07462
thorax 1.16274 -1.00294 -0.846401
lowerneck -7.98645 -4.86363 -4.06327
upperneck -13.071 -5.46663 12.3612
head -2.06088 -2.94941 4.38225
rclavicle -1.2921e-014 -1.68967e-014
rhumerus -79.7745 22.7174 -128.647
rradius 69.9287
rwrist 17.3969
rhand -16.3447 9.23697
rfingers 7.12502
rthumb 9.86756 -20.5118
lclavicle -1.2921e-014 -1.68967e-014
lhumerus -78.2598 -29.2077 144.698
lradius 63.5778
lwrist -2.60092
lhand -62.0059 -27.3601
lfingers 7.12502
lthumb -34.0593 -0.589533
rfemur -40.4931 -9.67225 31.4073
rtibia 68.7975
rfoot -34.1862 -8.875
rtoes -7.37561
lfemur -47.5789 4.16874 -34.7754
ltibia 6.36111e-015
lfoot -12.8094 13.812
ltoes -19.1809
307
root 14.5318 15.5859 -9.49719 7.78071 -15.8526 0.0681533
lowerback 22.2417 -2.21119 3.95649
upperback 12.544 -2.28757 0.976221
thorax 1.21894 -1.04716 -0.725531
lowerneck -7.30772 -4.71762 -3.98132
upperneck -14.3874 -5.1852 12.3756
head -2.58503 -2.87827 4.43061
rclavicle 5.52621e-014 -1.98785e-016
rhumerus -80.0221 22.7097 -128.969
rradius 69.8511
rwrist 16.0801
rhand -16.0044 10.0607
rfingers 7.12502
rthumb 10.1959 -19.6722
lclavicle 5.52621e-014 -1.98785e-016
lhumerus -78.4287 -29.2052 144.997
lradius 63.4124
lwrist -2.54765
lhand -62.5821 -30.1459
lfingers 7.12502
lthumb -34.6064 -3.49882
rfemur -41.9315 -9.92638 31.1203
rtibia 70.5166
rfoot -34.5692 -8.70443
rtoes -7.5295
lfemur -49.141 3.73183 -35.6072
ltibia -3.18055e-015
lfoot -13.8637 14.3976
ltoes -19.4581
308
root 14.5477 15.4742 -9.52683 7.96125 -15.9723 0.553974
lowerback 22.877 -2.2145 3.5287
upperback 12.8709 -2.35611 0.856372
thorax 1.27815 -1.09837 -0.58461
lowerneck -6.57908 -4.55899 -3.88623
upperneck -15.6124 -4.89186 12.3933
head -3.09409 -2.80043 4.4772
rclavicle 7.59357e-014 -1.55052e-014
rhumerus -80.2937 22.7131 -129.339
rradius 69.7324
rwrist 14.9315
rhand -15.653 10.8055
rfingers 7.12502
rthumb 10.5349 -18.9105
lclavicle 7.59357e-014 -1.55052e-014
lhumerus -78.675 -29.2432 145.363
lradius 63.2796
lwrist -2.42378
lhand -63.1946 -32.5324
lfingers 7.12502
lthumb -35.1876 -6.02032
rfemur -43.3608 -10.183 30.8067
rtibia 72.2293
rfoot -34.9962 -8.53716
rtoes -7.66105
lfemur -50.5126 3.34342 -36.4364
ltibia -3.49861e-014
lfoot -14.6941 14.9816
ltoes -19.6529
309
root 14.5601 15.3601 -9.55181 8.10715 -16.1171 1.09893
lowerback 23.4706 -2.20115 3.01624
upperback 13.1732 -2.42507 0.709094
thorax 1.33575 -1.15423 -0.425695
lowerneck -5.85133 -4.39176 -3.77837
upperneck -16.7121 -4.5922 12.4181
head -3.56942 -2.71657 4.52039
rclavicle -1.2921e-014 2.16675e-014
rhumerus -80.5558 22.7103 -129.728
rradius 69.557
rwrist 14.0387
rhand -15.3181 11.4529
rfingers 7.12502
rthumb 10.8579 -18.2464
lclavicle -1.2921e-014 2.16675e-014
lhumerus -78.9984 -29.3322 145.786
lradius 63.1768
lwrist -2.24979
lhand -63.8198 -34.4732
lfingers 7.12502
lthumb -35.7802 -8.10299
rfemur -44.7507 -10.4352 30.4407
rtibia 73.9276
rfoot -35.4509 -8.37905
rtoes -7.82898
lfemur -51.6629 3.01104 -37.283
ltibia 3.18055e-014
lfoot -15.2817 15.5923
ltoes -19.7451
